<svg width="124" height="25" viewBox="0 0 124 25" fill="none" xmlns="http://www.w3.org/2000/svg">
<path d="M0.705078 23.6L7.60127 1.03063H13.9646L20.8608 23.6H16.4723L10.3284 3.69507H11.1434L5.09357 23.6H0.705078ZM4.8428 18.8981V14.9171H16.7544V18.8981H4.8428Z" fill="white"/>
<path d="M22.7296 23.6V1.03063H26.9927V19.619H36.71V23.6H22.7296Z" fill="white"/>
<path d="M38.4346 23.6V1.03063H42.6977V23.6H38.4346Z" fill="white"/>
<path d="M46.456 23.6V1.03063H50.7191V19.619H60.4365V23.6H46.456Z" fill="white"/>
<path d="M70.9214 24.0702C68.6644 24.0702 66.7157 23.5791 65.0753 22.5969C63.4453 21.6147 62.1862 20.2407 61.298 18.4749C60.4203 16.709 59.9815 14.6558 59.9815 12.3153C59.9815 9.97479 60.4203 7.92161 61.298 6.15576C62.1862 4.38992 63.4453 3.0159 65.0753 2.03372C66.7157 1.05153 68.6644 0.56044 70.9214 0.56044C73.1783 0.56044 75.1218 1.05153 76.7518 2.03372C78.3923 3.0159 79.6513 4.38992 80.529 6.15576C81.4172 7.92161 81.8612 9.97479 81.8612 12.3153C81.8612 14.6558 81.4172 16.709 80.529 18.4749C79.6513 20.2407 78.3923 21.6147 76.7518 22.5969C75.1218 23.5791 73.1783 24.0702 70.9214 24.0702ZM70.9214 20.0579C72.3529 20.0788 73.544 19.7705 74.4949 19.1331C75.4457 18.4958 76.1562 17.592 76.6264 16.4217C77.107 15.2514 77.3474 13.8826 77.3474 12.3153C77.3474 10.748 77.107 9.38966 76.6264 8.24029C76.1562 7.09093 75.4457 6.19756 74.4949 5.56018C73.544 4.92281 72.3529 4.59367 70.9214 4.57277C69.4899 4.55187 68.2987 4.86011 67.3479 5.49749C66.397 6.13486 65.6813 7.03868 65.2007 8.20895C64.7305 9.37921 64.4954 10.748 64.4954 12.3153C64.4954 13.8826 64.7305 15.241 65.2007 16.3903C65.6813 17.5397 66.397 18.4331 67.3479 19.0705C68.2987 19.7078 69.4899 20.037 70.9214 20.0579Z" fill="white"/>
<path d="M93.4222 24.0702C91.1652 24.0702 89.2165 23.5791 87.5761 22.5969C85.9461 21.6147 84.687 20.2407 83.7988 18.4749C82.9211 16.709 82.4823 14.6558 82.4823 12.3153C82.4823 9.97479 82.9211 7.92161 83.7988 6.15576C84.687 4.38992 85.9461 3.0159 87.5761 2.03372C89.2165 1.05153 91.1652 0.56044 93.4222 0.56044C96.0135 0.56044 98.1868 1.20304 99.9422 2.48824C101.708 3.77344 102.951 5.51316 103.672 7.70741L99.378 8.89857C98.96 7.52978 98.2547 6.46923 97.2621 5.71691C96.2695 4.95415 94.9895 4.57277 93.4222 4.57277C91.9907 4.57277 90.7943 4.89146 89.833 5.52884C88.8822 6.16621 88.1664 7.06481 87.6858 8.22462C87.2051 9.38444 86.9648 10.748 86.9648 12.3153C86.9648 13.8826 87.2051 15.2462 87.6858 16.406C88.1664 17.5658 88.8822 18.4644 89.833 19.1018C90.7943 19.7392 91.9907 20.0579 93.4222 20.0579C94.9895 20.0579 96.2695 19.6765 97.2621 18.9137C98.2547 18.151 98.96 17.0904 99.378 15.7321L103.672 16.9232C102.951 19.1175 101.708 20.8572 99.9422 22.1424C98.1868 23.4276 96.0135 24.0702 93.4222 24.0702Z" fill="white"/>
<path d="M105.87 23.6V1.03063H110.133V11.4376L118.722 1.03063H123.925L114.49 12.1586L124.521 23.6H119.129L110.133 13.3184V23.6H105.87Z" fill="white"/>
</svg>
